<?xml version="1.0" encoding="UTF-8"?>
<svg xmlns="http://www.w3.org/2000/svg" xmlns:xlink="http://www.w3.org/1999/xlink" width="611.999983pt" height="791.999983pt" viewBox="0 0 611.999983 791.999983" version="1.2">
<g id="surface23207">
<path style=" stroke:none;fill-rule:nonzero;fill:rgb(80.799866%,86.698914%,87.799072%);fill-opacity:1;" d="M 513.59375 451.980469 L 478.738281 441.410156 L 477.550781 445.496094 C 474.335938 456.609375 470.039062 467.441406 464.734375 477.730469 L 462.835938 481.398438 L 494.972656 498.585938 C 489.453125 508.765625 483.09375 518.492188 476.015625 527.628906 L 447.8125 504.488281 L 445.136719 507.777344 C 437.875 516.796875 429.683594 525.15625 420.804688 532.636719 L 417.628906 535.289062 L 440.742188 563.535156 C 431.625 570.855469 421.96875 577.414062 411.984375 583.105469 L 394.746094 550.945312 L 391.027344 552.960938 C 380.75 558.558594 369.90625 563.152344 358.816406 566.601562 L 354.855469 567.816406 L 365.410156 602.722656 C 364.015625 603.125 362.625 603.503906 361.222656 603.871094 C 358.730469 604.539062 356.226562 605.15625 353.699219 605.722656 C 353.117188 605.855469 352.535156 605.988281 351.941406 606.113281 C 349.964844 606.546875 347.980469 606.945312 345.988281 607.324219 C 344.695312 607.574219 343.402344 607.796875 342.113281 608.023438 C 341.292969 608.15625 340.46875 608.292969 339.652344 608.421875 C 338.476562 608.605469 337.292969 608.78125 336.109375 608.949219 C 335.976562 608.964844 335.84375 608.984375 335.703125 609.007812 C 335.175781 609.070312 334.648438 609.148438 334.125 609.21875 C 333.828125 609.257812 333.527344 609.296875 333.226562 609.339844 C 332.582031 609.425781 331.949219 609.5 331.304688 609.574219 L 328.164062 577.914062 C 328.15625 577.640625 328.15625 577.363281 328.15625 577.089844 C 327.925781 559.109375 328.574219 541.042969 330.023438 525.957031 C 330.03125 525.9375 330.03125 525.921875 330.03125 525.902344 C 332.890625 505.898438 337.484375 491.121094 340.078125 488.8125 C 340.128906 488.757812 340.183594 488.707031 340.246094 488.675781 C 340.246094 488.667969 340.25 488.667969 340.25 488.667969 L 340.261719 488.667969 C 343.546875 487.464844 345.390625 485.054688 346.964844 483.3125 C 356.558594 481.210938 362.441406 478.371094 362.441406 475.242188 C 362.441406 472.585938 358.148438 469.550781 350.996094 466.875 C 349.59375 456.625 333.160156 454.152344 333.160156 454.152344 C 333.414062 449.203125 334.84375 446.101562 336.042969 444.300781 C 338.507812 444.738281 340.992188 445.226562 343.496094 445.835938 L 347.789062 439.390625 C 345.25 438.707031 342.707031 438.117188 340.191406 437.609375 C 343.3125 430.308594 355.164062 402.425781 360.363281 388.175781 C 366.378906 371.691406 360.363281 365.449219 360.363281 365.449219 C 355.085938 359.820312 347.027344 356.269531 338.714844 354.035156 L 341.867188 347.636719 C 335.316406 345.875 328.71875 344.84375 322.835938 344.25 C 318.074219 336.476562 315.945312 327.9375 315.421875 319.5625 C 324.675781 320.140625 334.132812 322.65625 342.527344 328.550781 L 342.527344 291.714844 C 334.496094 297.347656 325.496094 299.882812 316.628906 300.597656 C 319.324219 285.234375 325.152344 273.597656 325.152344 273.597656 L 286.832031 273.597656 C 286.832031 273.597656 292.328125 284.558594 295.109375 299.253906 C 280.417969 296.46875 269.453125 290.972656 269.453125 290.972656 L 269.453125 329.292969 C 269.453125 329.292969 281.09375 323.464844 296.457031 320.773438 C 295.8125 328.761719 293.683594 336.851562 289.144531 344.246094 C 283.261719 344.839844 276.667969 345.859375 270.113281 347.613281 L 273.28125 354.035156 C 264.972656 356.269531 256.917969 359.820312 251.640625 365.449219 C 251.640625 365.449219 245.625 371.691406 251.640625 388.175781 C 256.835938 402.417969 268.675781 430.265625 271.800781 437.59375 C 269.28125 438.097656 266.738281 438.683594 264.191406 439.363281 L 268.484375 445.804688 C 270.984375 445.203125 273.464844 444.714844 275.929688 444.28125 C 277.132812 446.085938 278.566406 449.1875 278.820312 454.152344 C 278.820312 454.152344 262.386719 456.625 260.984375 466.875 C 253.832031 469.550781 249.539062 472.585938 249.539062 475.242188 C 249.539062 477.9375 253.902344 480.417969 261.242188 482.398438 C 262.894531 484.375 264.894531 487.367188 268.871094 488.667969 L 268.878906 488.667969 C 268.878906 488.667969 268.886719 488.667969 268.886719 488.675781 C 277.828125 491.640625 287.320312 532.140625 284.257812 573.296875 L 284.140625 573.285156 L 282.832031 586.515625 L 280.546875 609.53125 C 279.648438 609.425781 278.757812 609.316406 277.863281 609.191406 L 277.859375 609.191406 C 276.605469 609.035156 275.367188 608.855469 274.113281 608.667969 C 274.050781 608.648438 273.976562 608.640625 273.914062 608.628906 C 272.597656 608.441406 271.289062 608.230469 269.972656 608 C 268.660156 607.785156 267.351562 607.550781 266.046875 607.300781 C 264.742188 607.054688 263.433594 606.796875 262.132812 606.523438 C 261.558594 606.40625 260.984375 606.285156 260.40625 606.167969 C 259.683594 606.007812 258.96875 605.847656 258.242188 605.683594 C 257.589844 605.53125 256.949219 605.382812 256.300781 605.230469 C 255.65625 605.082031 255.019531 604.925781 254.363281 604.765625 C 251.789062 604.128906 249.230469 603.449219 246.691406 602.722656 L 257.234375 567.859375 L 253.25 566.652344 C 241.945312 563.152344 230.957031 558.507812 220.605469 552.839844 L 216.886719 550.824219 L 199.675781 582.960938 C 189.777344 577.34375 180.324219 570.902344 171.445312 563.757812 L 194.585938 535.535156 L 191.410156 532.882812 C 182.339844 525.269531 173.980469 516.667969 166.511719 507.332031 L 163.871094 504.03125 L 135.640625 527.144531 C 128.816406 518.296875 122.660156 508.839844 117.261719 499.019531 L 149.421875 481.808594 L 147.503906 478.113281 C 142.011719 467.542969 137.535156 456.332031 134.257812 444.863281 L 133.089844 440.75 L 98.203125 451.304688 C 95.363281 440.660156 93.347656 429.738281 92.179688 418.753906 L 128.421875 415.183594 L 128.082031 411.074219 C 127.132812 400.0625 127.203125 389.050781 128.269531 378.332031 L 129.152344 370.9375 L 92.925781 367.34375 C 94.386719 356.398438 96.65625 345.703125 99.636719 335.425781 L 134.503906 345.96875 L 135.765625 342.035156 C 139.335938 330.679688 144.128906 319.621094 150.007812 309.125 L 152.070312 305.378906 L 119.910156 288.140625 C 125.335938 278.808594 131.460938 269.886719 138.171875 261.523438 L 166.371094 284.644531 L 169.046875 281.457031 C 176.675781 272.386719 185.285156 264.003906 194.636719 256.515625 L 197.972656 253.863281 L 174.832031 225.621094 C 183.332031 219.085938 192.328125 213.175781 201.664062 207.972656 L 218.878906 240.132812 L 222.570312 238.167969 C 233 232.648438 244.085938 228.125 255.484375 224.746094 L 259.542969 223.527344 L 249 188.648438 C 259.347656 185.773438 269.945312 183.691406 280.574219 182.425781 L 284.140625 218.695312 L 288.324219 218.277344 C 300.0625 217.109375 311.972656 217.109375 323.667969 218.277344 L 327.851562 218.695312 L 331.449219 182.472656 C 342.117188 183.742188 352.792969 185.847656 363.269531 188.714844 L 352.699219 223.605469 L 356.757812 224.792969 C 367.960938 228.09375 378.871094 232.546875 389.238281 238.039062 L 392.929688 239.984375 L 410.132812 207.851562 C 419.683594 213.148438 428.882812 219.203125 437.558594 225.9375 L 414.417969 254.132812 L 417.71875 256.78125 C 426.761719 264.074219 435.152344 272.269531 442.636719 281.191406 L 445.285156 284.351562 L 473.527344 261.234375 C 480.484375 269.910156 486.808594 279.121094 492.351562 288.722656 L 460.191406 305.964844 L 462.234375 309.683594 C 467.871094 319.84375 472.511719 330.5625 476.039062 341.550781 L 477.300781 345.460938 L 512.210938 334.917969 C 515.417969 345.726562 517.777344 356.839844 519.238281 368.046875 L 482.964844 371.644531 L 483.421875 375.847656 C 484.714844 387.226562 484.886719 398.871094 483.941406 410.515625 L 483.601562 414.621094 L 519.871094 418.21875 L 519.886719 418.21875 C 518.71875 429.445312 516.613281 440.804688 513.59375 451.980469 M 528.90625 410.683594 L 528.882812 410.683594 C 529.667969 398.894531 529.539062 387.125 528.496094 375.554688 L 528.546875 375.554688 L 560.484375 372.371094 L 560.027344 368.167969 C 558.226562 351.5625 554.75 335.082031 549.695312 319.136719 L 548.453125 315.199219 L 517.726562 324.488281 L 517.703125 324.488281 C 513.9375 313.402344 509.292969 302.554688 503.796875 292.128906 L 503.824219 292.101562 L 532.066406 276.988281 L 530.023438 273.261719 C 522.082031 258.824219 512.667969 245.042969 502.097656 232.355469 L 499.421875 229.171875 L 474.628906 249.496094 C 466.894531 240.566406 458.441406 232.28125 449.394531 224.695312 L 449.421875 224.671875 L 469.71875 199.902344 L 466.4375 197.226562 C 453.675781 186.925781 439.921875 177.804688 425.550781 170.167969 L 421.851562 168.226562 L 406.707031 196.496094 L 406.683594 196.523438 C 396.089844 191.175781 385.050781 186.675781 373.722656 183.082031 L 373.746094 183.058594 L 383.058594 152.328125 L 379 151.113281 C 363.316406 146.445312 347.269531 143.261719 331.28125 141.6875 L 327.121094 141.269531 L 323.9375 173.289062 C 312.027344 172.335938 300.019531 172.285156 288.085938 173.265625 L 288.085938 173.210938 L 284.925781 141.269531 L 280.742188 141.6875 C 264.816406 143.261719 248.847656 146.421875 233.269531 151.0625 L 229.234375 152.253906 L 238.515625 183.007812 C 226.996094 186.652344 215.785156 191.226562 205.113281 196.644531 L 205.089844 196.59375 L 189.96875 168.378906 L 186.277344 170.34375 C 172.101562 177.882812 158.542969 186.824219 145.972656 196.9375 L 142.671875 199.589844 L 162.941406 224.355469 L 162.964844 224.378906 C 153.632812 232.15625 144.957031 240.667969 137.050781 249.765625 L 112.257812 229.441406 L 109.582031 232.625 C 99.257812 244.996094 90.035156 258.464844 82.207031 272.660156 L 80.152344 276.378906 L 108.464844 291.542969 C 102.757812 302.289062 97.941406 313.515625 94.121094 324.972656 L 94.078125 324.972656 L 63.324219 315.660156 L 62.082031 319.621094 C 57.292969 334.941406 53.9375 351.027344 52.089844 367.433594 L 51.628906 371.671875 L 83.574219 374.832031 C 82.429688 386.765625 82.28125 398.988281 83.109375 411.242188 L 83.066406 411.242188 L 51.097656 414.402344 L 51.464844 418.558594 C 52.921875 434.914062 55.984375 451.203125 60.574219 467.011719 L 61.746094 471.085938 L 92.496094 461.808594 C 96.046875 473.378906 100.589844 484.683594 105.980469 495.542969 L 77.714844 510.667969 L 79.632812 514.335938 C 87.367188 529.0625 96.554688 543.09375 106.929688 556.023438 L 109.605469 559.304688 L 134.375 539.011719 C 142.164062 548.34375 150.640625 557.023438 159.683594 564.878906 L 159.683594 564.902344 L 139.359375 589.695312 L 142.570312 592.34375 C 155.480469 603.136719 169.503906 612.664062 184.207031 620.660156 L 187.910156 622.652344 L 203.046875 594.410156 L 203.074219 594.363281 C 213.703125 599.878906 224.832031 604.550781 236.234375 608.292969 L 236.234375 608.339844 L 226.925781 639.070312 L 230.90625 640.277344 C 247.121094 645.261719 263.867188 648.644531 280.6875 650.292969 L 284.875 650.703125 L 284.894531 650.5625 L 284.894531 650.554688 L 288.058594 618.695312 C 299.921875 619.667969 311.886719 619.6875 323.773438 618.71875 L 323.789062 618.769531 L 326.9375 650.582031 L 326.945312 650.605469 L 326.957031 650.714844 L 326.957031 650.730469 L 331.109375 650.324219 C 332.726562 650.164062 334.335938 649.988281 335.941406 649.785156 C 335.980469 649.785156 336.023438 649.78125 336.066406 649.777344 L 336.148438 649.773438 L 336.148438 649.761719 C 336.394531 649.738281 336.632812 649.710938 336.875 649.679688 C 336.933594 649.679688 337 649.667969 337.066406 649.664062 C 337.691406 649.589844 338.308594 649.503906 338.933594 649.421875 C 353.25 647.5625 367.421875 644.488281 381.15625 640.234375 L 385.148438 639.019531 L 375.863281 608.316406 L 375.839844 608.292969 C 387.070312 604.570312 398.054688 599.953125 408.558594 594.503906 L 408.582031 594.550781 L 423.707031 622.804688 L 427.398438 620.785156 C 442.242188 612.71875 456.46875 603.089844 469.621094 592.101562 L 472.828125 589.425781 L 452.53125 564.652344 L 452.503906 564.632812 C 461.378906 556.921875 469.671875 548.484375 477.230469 539.464844 L 502.019531 559.789062 L 504.671875 556.53125 C 515.34375 543.359375 524.757812 529.039062 532.625 513.96875 L 534.546875 510.273438 L 506.234375 495.113281 C 511.4375 484.605469 515.808594 473.667969 519.289062 462.457031 L 550.058594 471.769531 L 551.246094 467.710938 C 555.722656 452.394531 558.757812 436.769531 560.292969 421.277344 L 560.902344 413.867188 Z M 528.90625 410.683594 "/>
</g>
</svg>
